<?xml version="1.0" encoding="utf-8"?>
<!-- Generator: Adobe Illustrator 25.4.1, SVG Export Plug-In . SVG Version: 6.00 Build 0)  -->
<svg version="1.1" id="Layer_1" xmlns="http://www.w3.org/2000/svg" xmlns:xlink="http://www.w3.org/1999/xlink" x="0px" y="0px"
	 viewBox="0 0 2195.9 595.4" style="enable-background:new 0 0 2195.9 595.4;" xml:space="preserve">
<style type="text/css">
	.st0{fill:#55C5D1;}
	.st1{fill:#27AAE1;}
</style>
<rect class="st0" width="2203" height="130.3"/>
<path class="st1" d="M332.1,203.4c2.7,7,10.6,10.4,17.6,7.7l27.8-10.8l-5.5,13.9c-1.4,3.4,0.2,7.3,3.6,8.7c2.6,1.1,5.6,0.4,7.5-1.7
	l15.6-17v11.3c0,6.8-1.1,13.6-3.3,20.1l-13,39c-1,3.1,0.6,6.5,3.7,7.5c2.6,0.9,5.5-0.2,7-2.6l30.6-51.6c-1.8,5.1-1.3,8.9-0.3,11.5
	c1,2.8,4.1,4.3,6.9,3.2c0.7-0.2,1.3-0.6,1.8-1.1c5.1-5,8.4-18.3,10.1-27c-0.8-1.7-1-3.6-0.4-5.4l7.6-22.7c0.8-2.5,1.4-5,1.6-7.6
	l-2.6,2.9c-2.8,3.1-7.6,3.3-10.7,0.4c-2.3-2.1-3-5.4-1.9-8.3l0.1-0.3l-8.4,3.3c-6,2.3-12.7-0.6-15-6.6c-1.7-4.4-0.6-9.5,2.9-12.7
	l20.5-19c5.2-4.8,5.4-12.9,0.6-18.1c-0.8-0.9-1.8-1.7-2.9-2.3l-10.1-5.8c-4.3-2.5-5.7-8-3.2-12.2c1.6-2.7,4.5-4.4,7.7-4.4
	c0.9,0,1.8,0.1,2.6,0.4l5.3,1.6l-4.3-6.2c-2.7-3.8-1.7-9,2.1-11.7c1.9-1.3,4.3-1.8,6.6-1.3l0.6,0.1L434,62.9c-1.8-4,0-8.8,4-10.6
	c0.2-0.1,0.4-0.2,0.7-0.3c-0.9,0-1.7,0-2.6,0.2l-0.4,0.1l-10.7-30.3c-1.4-3.8-5.6-5.8-9.4-4.5c-3,1-4.9,3.9-4.9,7l0.3,22.2L381,11.2
	c-2.6-3.1-7.3-3.5-10.4-0.9c-2.5,2.1-3.3,5.7-2,8.7l17.5,38.1l-13.3-2.9c-4.4-1-8.8,1.8-9.7,6.2c-0.5,2.2,0,4.5,1.2,6.4l17.6,25.5
	l-26.4-8.1c-4.8-1.5-9.9,1.2-11.3,6c-1.2,4,0.5,8.4,4.1,10.5l17.3,10c13.5,7.8,18.1,25.1,10.2,38.6c-1.4,2.4-3.2,4.6-5.2,6.6
	l-35.2,32.5C331.3,192.2,330,198.2,332.1,203.4z"/>
<path class="st1" d="M437.4,61.3l10.2,22.2l-7.7-1.7c-2.6-0.6-5.1,1-5.7,3.6c-0.3,1.3,0,2.6,0.7,3.7l10.2,14.9l-15.4-4.7
	c-2.8-0.8-5.7,0.7-6.6,3.5c-0.7,2.3,0.3,4.9,2.4,6.1l10.1,5.8c7.9,4.6,10.5,14.6,6,22.5c-0.8,1.4-1.8,2.7-3,3.8l-20.5,19
	c-3.2,3-3.4,8-0.4,11.2c2.2,2.4,5.6,3.2,8.7,2l16.2-6.3l-3.2,8.1c-0.8,2,0.2,4.3,2.2,5c1.5,0.6,3.2,0.2,4.3-1l9.1-9.9v6.6
	c0,4-0.6,7.9-1.9,11.7l-7.6,22.7c-0.6,1.8,0.4,3.8,2.2,4.4c1.5,0.5,3.2-0.1,4.1-1.5l17.8-30.1c-0.9,2.1-0.9,4.5-0.2,6.7
	c0.6,1.6,2.4,2.5,4.1,1.9c0.4-0.1,0.7-0.4,1-0.6c4.6-4.5,6.6-20.3,6.6-20.3c10-2.4,8.6-12.6,8.6-12.6l116.9-21.3v-13.2L503.4,103
	c-4.9-1.9-9.4-4.7-13.4-8.1c-2.5-2.3-4.2-5.3-4.8-8.6c-0.9-3.9-4.6-6.4-8.5-5.7h-0.3L470.1,63c-0.8-2.2-3.3-3.4-5.5-2.6
	c-1.7,0.6-2.9,2.3-2.8,4.1l0.1,13l-17.4-20.7c-1.5-1.8-4.2-2.1-6.1-0.6C437,57.5,436.5,59.6,437.4,61.3L437.4,61.3z M517.7,137.5
	l-54.2,0.9l53-6.9l-45.4-3.2l46.8-3.7l-48.6-7.3l44.9,1.2l-46.1-9.3l132.8,17.2v5.2l-140.7,18.6L517.7,137.5z"/>
<path d="M2148,379.5l-7.1-7.8c3.6-5.4,2.8-12.6-1.7-17.2l-28.8-28.8c36.5-32.7,55.1-61.5,0.3-72c-75.9-14.5-112.9-53.4-129.2-77.9
	c25.7-15.3,34.2-48.6,18.9-74.3c-9.8-16.4-27.5-26.5-46.6-26.5h-214.3c-16.9,0-32.8,7.9-43.1,21.3h-466.7c-10.7,0-20.8,5.2-26.9,14
	H750.9c-0.2-6.3-5.4-11.3-11.7-11.3H681c-4.2,0-8.1,2.3-10.2,5.9l-52.6,14.2c-3.3,0.9-5.6,3.9-5.6,7.3v5.3c0,3.4,2.3,6.5,5.6,7.4
	l52.6,14.2c2.1,3.7,6,5.9,10.2,5.9h58.2c6.3,0,11.5-5,11.7-11.3h451.8c6.2,8.8,16.2,14,26.9,14h466.7c10.2,13.4,26.2,21.3,43.1,21.3
	h43.1c13.7,13.2,25.5,29.2,23.9,43.9c-0.3,3.1-0.6,6.2-0.7,9.5c-2.1,42.5,11.6,84.2,37.2,118.3c44.5,59.3,90.7,73.9,121.4,75.9
	c17.5,1,34.5-6.2,46-19.5c14.7-16.8,40.4-36.8,65.5-56.8l31.7,31.7c4.9,4.9,12.8,5.3,18.2,1l6.3,6.9c30.1,33,37.3,78.8,18.6,119.4
	s11.7,70.5,11.7,70.5s-13.5-13.8,8.3-61.3C2192.8,474,2184.2,419.1,2148,379.5z M745.4,145.4h-43.2v-3.6h43.2c1-0.1,1.9,0.7,2,1.7
	c0.1,1-0.7,1.9-1.7,2C745.6,145.4,745.5,145.4,745.4,145.4z M745.4,131.2h-43.2v-3.7h43.2c1-0.1,1.9,0.7,2,1.7c0.1,1-0.7,1.9-1.7,2
	C745.6,131.2,745.5,131.2,745.4,131.2z M745.4,117h-43.2v-3.7h43.2c1-0.1,1.9,0.7,2,1.7c0.1,1-0.7,1.9-1.7,2
	C745.6,117,745.5,117,745.4,117z M2009.8,397.4c-2.9,2.8-6.3,5.8-10,8.9c-17,14-43.2,8.5-43.2,8.5c-27.4,1.2-82.2-44.5-120.6-98.1
	c-30.6-42.8-5.8-76.2,5.5-88c2.8-2.9,7.2-3.8,10.9-2.2c63.7,27,106.6,132.3,106.6,132.3c2.3,5.8,0,12.7-3.2,18.3
	c-3.5,6.4,3.3,13.6,9.8,10.3c5-2.5,8-7.2,9.7-11.9c2.5-6.9,2.7-14.4,0.4-21.3c-23.1-74.5-80.5-123.5-102.4-140.1
	c-6.5-4.9-4.5-15.3,3.4-17.2c1.2-0.3,2.4-0.5,3.6-0.7c6.3-0.9,12.7,1.3,17,6L2012,326.6C2030.7,346.8,2029.7,378.3,2009.8,397.4
	L2009.8,397.4z"/>
<path class="st0" d="M134.6,297.4c0,0,1.7,50.9,20.7,65.6c0,0,26.8,14.7,58.3,13.4c0,0-56.1,0.9-66.5,25c0,0-7.8,2.6-12.5,54.4
	c0,0-1.7-51.4-17.3-61.7c0,0-11.7-16.4-62.2-17.5c0,0,34.1,1.5,59.6-14.9C114.8,361.7,129.4,357.4,134.6,297.4z"/>
<path class="st0" d="M765.1,121.4c0,0,0.9,25.6,10.7,33c0,0,13.8,7.4,30,6.7c0,0-28.8,0.4-34.2,12.6c0,0-4,1.3-6.4,27.3
	c0,0-0.9-25.8-8.9-31c0,0-6-8.2-32-8.8c0,0,17.5,0.8,30.6-7.5C754.9,153.8,762.4,151.6,765.1,121.4z"/>
<path class="st0" d="M47.4,156c0,0,0.6,17.2,7.2,22.2c6.3,3.1,13.2,4.7,20.2,4.5c0,0-19.4,0.3-23,8.5c0,0-2.7,0.9-4.3,18.4
	c0,0-0.6-17.4-6-20.9c0,0-4-5.6-21.5-5.9c0,0,11.8,0.5,20.6-5C40.5,177.8,45.6,176.3,47.4,156z"/>
</svg>
